<svg width="32" height="32" viewBox="0 0 32 32" fill="none" xmlns="http://www.w3.org/2000/svg">
<rect width="32" height="32" fill="#E5E5E5"/>
<g clip-path="url(#clip0_0_1)">
<rect width="1920" height="4334" transform="translate(-976 -3741)" fill="white"/>
<rect x="-32" y="-264" width="976" height="717" fill="black"/>
<g clip-path="url(#clip1_0_1)">
<path fill-rule="evenodd" clip-rule="evenodd" d="M29.3334 16.0001C29.3334 23.3639 23.3639 29.3334 16.0001 29.3334C8.63628 29.3334 2.66675 23.3639 2.66675 16.0001C2.66675 8.63628 8.63628 2.66675 16.0001 2.66675C23.3639 2.66675 29.3334 8.63628 29.3334 16.0001ZM19 16.0001C19 17.6569 17.6569 19.0001 16 19.0001C14.3431 19.0001 13 17.6569 13 16.0001C13 14.3432 14.3431 13.0001 16 13.0001C17.6569 13.0001 19 14.3432 19 16.0001Z" fill="#F8F200"/>
</g>
</g>
<defs>
<clipPath id="clip0_0_1">
<rect width="1920" height="4334" fill="white" transform="translate(-976 -3741)"/>
</clipPath>
<clipPath id="clip1_0_1">
<rect width="32" height="32" fill="white"/>
</clipPath>
</defs>
</svg>
